<mxfile host="Electron" modified="2024-02-18T11:35:59.282Z" agent="Mozilla/5.0 (Windows NT 10.0; Win64; x64) AppleWebKit/537.36 (KHTML, like Gecko) draw.io/22.1.2 Chrome/114.0.5735.289 Electron/25.9.4 Safari/537.36" etag="iOzlkSH-R3dDAzvZb2PF" version="22.1.2" type="device">
  <diagram name="Страница — 1" id="qAGleA7osLSPUbL8gw_2">
    <mxGraphModel dx="1036" dy="614" grid="1" gridSize="10" guides="1" tooltips="1" connect="1" arrows="1" fold="1" page="1" pageScale="1" pageWidth="827" pageHeight="1169" math="0" shadow="0">
      <root>
        <mxCell id="0" />
        <mxCell id="1" parent="0" />
        <mxCell id="t9pstsjFalF1-Cg5YwDF-1" value="&lt;font style=&quot;font-size: 24px;&quot;&gt;Start&lt;/font&gt;" style="ellipse;whiteSpace=wrap;html=1;" vertex="1" parent="1">
          <mxGeometry x="320" y="70" width="200" height="70" as="geometry" />
        </mxCell>
        <mxCell id="t9pstsjFalF1-Cg5YwDF-7" style="edgeStyle=orthogonalEdgeStyle;rounded=0;orthogonalLoop=1;jettySize=auto;html=1;exitX=0.5;exitY=1;exitDx=0;exitDy=0;entryX=0.5;entryY=0;entryDx=0;entryDy=0;" edge="1" parent="1" source="t9pstsjFalF1-Cg5YwDF-2" target="t9pstsjFalF1-Cg5YwDF-4">
          <mxGeometry relative="1" as="geometry" />
        </mxCell>
        <mxCell id="t9pstsjFalF1-Cg5YwDF-2" value="&lt;font style=&quot;font-size: 24px;&quot;&gt;string[] array1&lt;br&gt;string[] array2&lt;/font&gt;" style="shape=parallelogram;perimeter=parallelogramPerimeter;whiteSpace=wrap;html=1;fixedSize=1;" vertex="1" parent="1">
          <mxGeometry x="320" y="200" width="180" height="80" as="geometry" />
        </mxCell>
        <mxCell id="t9pstsjFalF1-Cg5YwDF-3" style="edgeStyle=orthogonalEdgeStyle;rounded=0;orthogonalLoop=1;jettySize=auto;html=1;entryX=0.556;entryY=-0.033;entryDx=0;entryDy=0;entryPerimeter=0;" edge="1" parent="1" source="t9pstsjFalF1-Cg5YwDF-1" target="t9pstsjFalF1-Cg5YwDF-2">
          <mxGeometry relative="1" as="geometry" />
        </mxCell>
        <mxCell id="t9pstsjFalF1-Cg5YwDF-10" style="edgeStyle=orthogonalEdgeStyle;rounded=0;orthogonalLoop=1;jettySize=auto;html=1;exitX=0.5;exitY=1;exitDx=0;exitDy=0;entryX=0.5;entryY=0;entryDx=0;entryDy=0;" edge="1" parent="1" source="t9pstsjFalF1-Cg5YwDF-4" target="t9pstsjFalF1-Cg5YwDF-8">
          <mxGeometry relative="1" as="geometry" />
        </mxCell>
        <mxCell id="t9pstsjFalF1-Cg5YwDF-18" style="edgeStyle=orthogonalEdgeStyle;rounded=0;orthogonalLoop=1;jettySize=auto;html=1;exitX=0;exitY=0.5;exitDx=0;exitDy=0;entryX=0;entryY=0.5;entryDx=0;entryDy=0;" edge="1" parent="1" source="t9pstsjFalF1-Cg5YwDF-4" target="t9pstsjFalF1-Cg5YwDF-17">
          <mxGeometry relative="1" as="geometry">
            <Array as="points">
              <mxPoint x="220" y="410" />
              <mxPoint x="220" y="880" />
            </Array>
          </mxGeometry>
        </mxCell>
        <mxCell id="t9pstsjFalF1-Cg5YwDF-4" value="&lt;font style=&quot;font-size: 18px;&quot;&gt;int i = 0; i &amp;lt; array1.Length; i++&lt;/font&gt;" style="shape=hexagon;perimeter=hexagonPerimeter2;whiteSpace=wrap;html=1;fixedSize=1;" vertex="1" parent="1">
          <mxGeometry x="277.5" y="370" width="265" height="80" as="geometry" />
        </mxCell>
        <mxCell id="t9pstsjFalF1-Cg5YwDF-9" style="edgeStyle=orthogonalEdgeStyle;rounded=0;orthogonalLoop=1;jettySize=auto;html=1;exitX=1;exitY=0.5;exitDx=0;exitDy=0;entryX=1;entryY=0.5;entryDx=0;entryDy=0;" edge="1" parent="1" source="t9pstsjFalF1-Cg5YwDF-8" target="t9pstsjFalF1-Cg5YwDF-4">
          <mxGeometry relative="1" as="geometry">
            <Array as="points">
              <mxPoint x="590" y="585" />
              <mxPoint x="590" y="410" />
            </Array>
          </mxGeometry>
        </mxCell>
        <mxCell id="t9pstsjFalF1-Cg5YwDF-13" style="edgeStyle=orthogonalEdgeStyle;rounded=0;orthogonalLoop=1;jettySize=auto;html=1;exitX=0.5;exitY=1;exitDx=0;exitDy=0;entryX=0.5;entryY=0;entryDx=0;entryDy=0;" edge="1" parent="1" source="t9pstsjFalF1-Cg5YwDF-8" target="t9pstsjFalF1-Cg5YwDF-12">
          <mxGeometry relative="1" as="geometry" />
        </mxCell>
        <mxCell id="t9pstsjFalF1-Cg5YwDF-8" value="&lt;font style=&quot;font-size: 18px;&quot;&gt;if (array1.Length &amp;lt;= 3)&lt;/font&gt;" style="rhombus;whiteSpace=wrap;html=1;" vertex="1" parent="1">
          <mxGeometry x="285" y="530" width="250" height="110" as="geometry" />
        </mxCell>
        <mxCell id="t9pstsjFalF1-Cg5YwDF-11" value="NO" style="text;html=1;align=center;verticalAlign=middle;resizable=0;points=[];autosize=1;strokeColor=none;fillColor=none;" vertex="1" parent="1">
          <mxGeometry x="530" y="550" width="40" height="30" as="geometry" />
        </mxCell>
        <mxCell id="t9pstsjFalF1-Cg5YwDF-16" style="edgeStyle=orthogonalEdgeStyle;rounded=0;orthogonalLoop=1;jettySize=auto;html=1;" edge="1" parent="1" source="t9pstsjFalF1-Cg5YwDF-12">
          <mxGeometry relative="1" as="geometry">
            <mxPoint x="590" y="590" as="targetPoint" />
          </mxGeometry>
        </mxCell>
        <mxCell id="t9pstsjFalF1-Cg5YwDF-12" value="&lt;font style=&quot;font-size: 18px;&quot;&gt;array2[i] = arra1[i]&lt;/font&gt;" style="rounded=0;whiteSpace=wrap;html=1;" vertex="1" parent="1">
          <mxGeometry x="295" y="710" width="230" height="60" as="geometry" />
        </mxCell>
        <mxCell id="t9pstsjFalF1-Cg5YwDF-15" value="YES" style="text;html=1;align=center;verticalAlign=middle;resizable=0;points=[];autosize=1;strokeColor=none;fillColor=none;" vertex="1" parent="1">
          <mxGeometry x="355" y="658" width="50" height="30" as="geometry" />
        </mxCell>
        <mxCell id="t9pstsjFalF1-Cg5YwDF-20" style="edgeStyle=orthogonalEdgeStyle;rounded=0;orthogonalLoop=1;jettySize=auto;html=1;entryX=0.5;entryY=0;entryDx=0;entryDy=0;" edge="1" parent="1" source="t9pstsjFalF1-Cg5YwDF-17" target="t9pstsjFalF1-Cg5YwDF-19">
          <mxGeometry relative="1" as="geometry" />
        </mxCell>
        <mxCell id="t9pstsjFalF1-Cg5YwDF-17" value="&lt;font style=&quot;font-size: 18px;&quot;&gt;print array2&lt;/font&gt;" style="shape=document;whiteSpace=wrap;html=1;boundedLbl=1;" vertex="1" parent="1">
          <mxGeometry x="355" y="840" width="120" height="80" as="geometry" />
        </mxCell>
        <mxCell id="t9pstsjFalF1-Cg5YwDF-19" value="&lt;font style=&quot;font-size: 18px;&quot;&gt;END&lt;/font&gt;" style="ellipse;whiteSpace=wrap;html=1;" vertex="1" parent="1">
          <mxGeometry x="345" y="990" width="140" height="50" as="geometry" />
        </mxCell>
      </root>
    </mxGraphModel>
  </diagram>
</mxfile>
